# xmcd
#
# Track frame offsets: 
#        150
#        17323
#        31393
#        48224
#        64848
#        81105
#        98959
#        115151
#        131629
#        148712
#        162812
#
# Disc length: 2390 seconds
#
# Revision: 2
# Processed by: cddbd v1.5.2PL0 Copyright (c) Steve Scherf et al.
# Submitted via: ExactAudioCopyFreeDBPlugin 1.0
#
DISCID=8809540b
DTITLE=Cherish - The Truth
DYEAR=2008
DGENRE=R&B
TTITLE0=Killa Feat. Yung Joc
TTITLE1=Ain't Trippin'
TTITLE2=Amnesia
TTITLE3=Notice
TTITLE4=Framed Out
TTITLE5=Before You Were My Man
TTITLE6=Superstar
TTITLE7=Only One
TTITLE8=Love Sick
TTITLE9=Damages
TTITLE10=Like A Drum
EXTD=
EXTT0=
EXTT1=
EXTT2=
EXTT3=
EXTT4=
EXTT5=
EXTT6=
EXTT7=
EXTT8=
EXTT9=
EXTT10=
PLAYORDER=
